<svg width="28" height="28" viewBox="0 0 28 28" fill="none" xmlns="http://www.w3.org/2000/svg">
<path d="M7.00267 2V5.00033M21.0027 2V5.00033M2 23.0023V7.99667C2 7.20093 2.31607 6.43778 2.87868 5.87511C3.44129 5.31244 4.20435 4.99633 5 4.99633H23C23.7956 4.99633 24.5587 5.31244 25.1213 5.87511C25.6839 6.43778 26 7.20093 26 7.99667V22.9997M26 22.9997C26 23.7954 25.6839 24.5586 25.1213 25.1212C24.5587 25.6839 23.7956 26 23 26H5C4.20435 26 3.44129 25.6839 2.87868 25.1212C2.31607 24.5586 2 23.7954 2 22.9997V12.9986C2 12.2028 2.31607 11.4397 2.87868 10.877C3.44129 10.3143 4.20435 9.99822 5 9.99822H23C23.7956 9.99822 24.5587 10.3143 25.1213 10.877C25.6839 11.4397 26 12.2028 26 12.9986V22.9997ZM17 14.9988H20M8 17.9991H14M14.0027 14.9988H14.0093V15.0068H14.0027V14.9988ZM14.0013 20.9994H14.0093V21.0074H14.0013V20.9994ZM11.0013 21.0008H11.008V21.0088H11.0027V21.0008H11.0013ZM8.00133 21.0008H8.008V21.0074H8V21.0008H8.00133ZM17.0013 18.0044H17.008V18.0111H17.0013V18.0044ZM17.0013 21.0008H17.0093V21.0088H17.0013V21.0008ZM20.0013 18.0031H20.0093V18.0098H20.0027L20.0013 18.0031Z" stroke="#0672FF" stroke-width="2.5" stroke-linecap="round" stroke-linejoin="round"/>
</svg>
