<svg width="29" height="21" viewBox="0 0 29 21" fill="none" xmlns="http://www.w3.org/2000/svg">
<path d="M19.3077 8.61111L25.359 2.66741C25.4934 2.53549 25.6647 2.44568 25.8511 2.4093C26.0375 2.37293 26.2307 2.39163 26.4063 2.46305C26.5819 2.53446 26.732 2.65538 26.8377 2.81054C26.9433 2.9657 26.9998 3.14814 27 3.33481V17.6652C26.9998 17.8519 26.9433 18.0343 26.8377 18.1895C26.732 18.3446 26.5819 18.4655 26.4063 18.537C26.2307 18.6084 26.0375 18.6271 25.8511 18.5907C25.6647 18.5543 25.4934 18.4645 25.359 18.3326L19.3077 12.3889M4.88462 19H16.4231C17.1881 19 17.9218 18.7015 18.4628 18.1701C19.0038 17.6388 19.3077 16.9181 19.3077 16.1667V4.83333C19.3077 4.08189 19.0038 3.36122 18.4628 2.82986C17.9218 2.29851 17.1881 2 16.4231 2H4.88462C4.11957 2 3.38585 2.29851 2.84488 2.82986C2.30391 3.36122 2 4.08189 2 4.83333V16.1667C2 16.9181 2.30391 17.6388 2.84488 18.1701C3.38585 18.7015 4.11957 19 4.88462 19Z" stroke="#0672FF" stroke-width="2.5" stroke-linecap="round" stroke-linejoin="round"/>
</svg>
